<svg xmlns="http://www.w3.org/2000/svg" viewBox="0 0 64 64" xml:space="preserve" style="fill-rule:evenodd;clip-rule:evenodd;stroke-linecap:round;stroke-linejoin:round;stroke-miterlimit:2"><path d="M22 18h-6a3 3 0 0 0-3 3v31.939a3 3 0 0 0 3 3h32a3 3 0 0 0 3-3V21a3 3 0 0 0-3-3h-6" style="fill:none;stroke:#222a33;stroke-width:2px"/><path d="M43.5 53h1.376A2.124 2.124 0 0 0 47 50.876V37.5M36 47a3 3 0 0 0-3-3h-2a3 3 0 0 0-3 3v9h8v-9zM6 56V34.956c0-.796.316-1.559.879-2.121A2.996 2.996 0 0 1 9 31.956h4M51 31.956h4c.796 0 1.559.316 2.121.879.563.562.879 1.325.879 2.121v20.983M22 16.464a1.499 1.499 0 0 1 1.5-1.5h4a1.5 1.5 0 0 0 1.5-1.5V9.5A1.5 1.5 0 0 1 30.5 8h3A1.5 1.5 0 0 1 35 9.5v3.964a1.5 1.5 0 0 0 1.5 1.5h4a1.5 1.5 0 0 1 1.5 1.5V19.5a1.503 1.503 0 0 1-1.5 1.5h-4a1.503 1.503 0 0 0-1.5 1.5v4a1.5 1.5 0 0 1-1.5 1.5h-3a1.5 1.5 0 0 1-1.5-1.5v-4a1.503 1.503 0 0 0-1.5-1.5h-4a1.503 1.503 0 0 1-1.5-1.5v-3.036z" style="fill:none;stroke:#222a33;stroke-width:2px"/></svg>